<svg width="831" height="406" viewBox="0 0 831 406" fill="none" xmlns="http://www.w3.org/2000/svg">
<path d="M454.567 86.0396C460.934 92.8771 464.157 101.286 464.107 110.59C462.613 122.001 459.485 131.169 450.448 138.791C443.915 143.326 437.257 145.801 429.267 145.606C427.344 144.86 427.344 144.86 425.333 143.888C419.397 141.228 413.377 139.376 406.938 141.452C395.986 145.957 386.077 153.038 376.264 159.568C373.153 161.617 370.003 163.601 366.85 165.585C363.085 167.958 359.345 170.371 355.606 172.785C354.893 173.24 354.181 173.694 353.447 174.162C351.44 175.452 349.453 176.768 347.471 178.094C346.876 178.471 346.28 178.848 345.667 179.237C343.81 180.443 343.81 180.443 341.58 182.701C340.943 185.772 340.943 185.772 341.194 188.771C339.332 201.14 335.517 210.18 325.435 217.895C316.245 223.842 306.961 224.805 296.363 222.875C285.974 220.168 279.176 212.421 273.789 203.506C272.741 200.566 272.741 200.566 272.651 198.381C272.466 195.538 272.072 193.495 270.884 190.894C267.264 188.046 263.218 186.45 258.973 184.722C257.223 183.959 257.223 183.959 255.438 183.181C253.075 182.152 250.706 181.138 248.331 180.137C245.322 178.855 242.356 177.514 239.397 176.121C238.57 175.732 237.744 175.344 236.892 174.944C235.385 174.235 233.879 173.525 232.374 172.813C227.833 170.735 223.581 169.119 218.607 168.465C216.2 169.638 216.2 169.638 214.385 171.717C207.765 177.742 200.226 179.584 191.379 179.584C187.67 178.958 187.67 178.958 183.971 178.053C182.133 177.615 182.133 177.615 180.258 177.169C176.769 176.185 176.769 176.185 174.268 174.678C170.747 173.744 170.293 173.94 167.214 175.548C165.708 176.447 164.217 177.371 162.738 178.315C161.552 179.045 161.552 179.045 160.342 179.789C158.675 180.823 157.015 181.867 155.361 182.921C152.825 184.531 150.264 186.095 147.697 187.655C146.081 188.665 144.466 189.678 142.853 190.693C142.085 191.16 141.317 191.626 140.525 192.107C138.541 193.393 136.791 194.586 135.134 196.273C134.309 199.417 134.309 199.417 134.748 202.343C134.567 213.48 131.558 222.013 123.728 229.975C115.698 237.122 105.971 239.724 95.3318 239.375C87.198 238.281 79.4766 234.789 73.9754 228.567C66.7585 219.015 63.174 208.967 64.8455 196.925C67.3113 187.156 73.2912 178.812 81.8829 173.617C85.1882 171.99 88.4613 170.797 92.0084 169.812C92.6831 169.62 93.3578 169.427 94.053 169.229C102.396 167.505 111.873 170.188 119.011 174.554C120.591 175.684 120.591 175.684 122.202 176.837C122.603 176.316 123.003 175.796 123.416 175.26C125.019 173.437 126.412 172.348 128.466 171.082C129.139 170.663 129.812 170.245 130.505 169.813C131.226 169.373 131.946 168.933 132.689 168.48C133.431 168.02 134.173 167.561 134.938 167.087C137.303 165.624 139.673 164.17 142.043 162.715C143.65 161.724 145.256 160.731 146.863 159.738C150.795 157.308 154.733 154.886 158.673 152.467C158.589 151.898 158.504 151.329 158.417 150.742C158.311 149.989 158.205 149.236 158.095 148.46C157.988 147.716 157.881 146.972 157.77 146.205C156.905 136.951 160.953 128.002 166.612 120.962C172.547 114.441 180.455 110.503 189.161 109.063C199.554 108.796 209.361 112.287 217.088 119.09C223.276 125.155 226.72 132.332 228.1 140.899C227.801 142.184 227.502 143.47 227.194 144.795C228.294 145.192 229.394 145.589 230.528 145.998C234.387 147.42 238.164 148.994 241.939 150.628C242.919 151.051 242.919 151.051 243.918 151.483C245.287 152.076 246.656 152.67 248.025 153.264C250.095 154.164 252.166 155.059 254.238 155.953C260.839 158.811 267.393 161.727 273.854 164.891C276.348 166.16 276.348 166.16 278.724 166.024C280.941 164.163 280.941 164.163 282.377 162.614C288.518 156.759 296.23 153.086 304.743 152.999C307.527 153.193 310.124 153.612 312.853 154.2C313.764 154.385 314.676 154.571 315.614 154.762C319.067 155.902 319.067 155.902 321.276 157.539C324.256 159.604 326.517 160.77 330.075 161.543C335.781 159.798 340.409 156.569 345.332 153.266C346.767 152.349 348.205 151.436 349.645 150.527C353.418 148.131 357.154 145.683 360.884 143.222C364.701 140.718 368.551 138.264 372.398 135.806C379.934 130.982 387.431 126.101 394.907 121.185C394.812 120.336 394.718 119.487 394.62 118.612C394.504 117.49 394.387 116.368 394.267 115.212C394.148 114.104 394.029 112.995 393.907 111.853C393.375 102.043 397.607 93.4347 403.952 86.1994C410.233 79.6694 418.84 75.774 427.891 74.9284C438.573 75.2549 446.905 78.8104 454.567 86.0396Z" fill="#3892F9"/>
<path d="M101.729 193.121C105.307 194.053 107.491 194.934 109.722 197.933C111.749 201.974 111.314 205.344 110.065 209.595C108.154 213.267 105.82 213.948 101.971 215.252C98.5997 216.059 96.2447 215.244 92.9783 214.186C90.3072 211.43 89.0991 209.382 87.7466 205.782C88.0689 203.535 88.0689 203.535 88.6871 201.188C88.8878 200.405 89.0885 199.622 89.2953 198.815C89.4573 198.221 90.5933 197.854 90.7601 197.243C91.403 197.392 91.2984 196.341 91.9607 196.495C92.3822 195.958 92.5769 196.395 93.0111 195.841C95.8988 192.519 97.5608 192.31 101.729 193.121Z" fill="#F8FBFE"/>
<path d="M434.249 100.142C436.542 101.097 436.542 101.097 439.057 103.799C440.537 107.798 440.633 109.991 439.666 114.144C437.78 117.324 436.092 119.581 433.136 121.801C429.025 122.601 425.575 122.14 421.817 120.258C419.554 117.77 418.378 115.334 417.559 112.081C417.861 108.038 418.525 106.039 421.047 102.882C425.896 98.808 428.097 98.4915 434.249 100.142Z" fill="#F9FBFE"/>
<path d="M201.492 136.545C204.025 139.129 203.969 141.634 204.163 145.131C203.815 149.232 202.329 152.025 199.219 154.713C195.223 156.075 192.777 156.295 188.677 155.341C185.44 153.297 184.152 151.058 182.367 147.713C182.12 147.316 181.873 146.92 181.619 146.512C182.089 141.978 182.83 138.607 186.029 135.282C191.958 131.939 195.724 132.697 201.492 136.545Z" fill="#FAFCFE"/>
<path d="M312.654 179.051C315.043 181.449 316.353 182.974 317.139 186.255C316.643 190.767 315.925 194.135 312.79 197.499C308.465 199.86 306.089 200.162 301.305 198.87C297.81 197.06 296.735 195.998 295.166 192.437C294.251 189.208 294.253 187.467 295.153 184.22C296.921 181.077 298.726 179.517 301.714 177.533C305.473 176.632 309.083 177.718 312.654 179.051Z" fill="#FBFCFE"/>
<path d="M8.881 379V304.1H41.302C48.0073 304.1 53.7853 305.206 58.636 307.417C63.4867 309.557 67.2317 312.66 69.871 316.726C72.5103 320.792 73.83 325.643 73.83 331.278C73.83 336.842 72.5103 341.657 69.871 345.723C67.2317 349.718 63.4867 352.785 58.636 354.925C53.7853 357.065 48.0073 358.135 41.302 358.135H18.511L26.215 350.538V379H8.881ZM56.496 379L37.771 351.822H56.282L75.221 379H56.496ZM26.215 352.464L18.511 344.332H40.339C45.689 344.332 49.6837 343.191 52.323 340.908C54.9623 338.554 56.282 335.344 56.282 331.278C56.282 327.141 54.9623 323.931 52.323 321.648C49.6837 319.365 45.689 318.224 40.339 318.224H18.511L26.215 309.985V352.464ZM114.956 379.856C108.393 379.856 102.615 378.572 97.6216 376.004C92.6996 373.436 88.8833 369.941 86.1726 365.518C83.462 361.024 82.1066 355.924 82.1066 350.217C82.1066 344.439 83.4263 339.339 86.0656 334.916C88.7763 330.422 92.45 326.927 97.0866 324.43C101.723 321.862 106.966 320.578 112.816 320.578C118.451 320.578 123.516 321.791 128.01 324.216C132.575 326.57 136.177 329.994 138.817 334.488C141.456 338.911 142.776 344.225 142.776 350.431C142.776 351.073 142.74 351.822 142.669 352.678C142.597 353.463 142.526 354.212 142.455 354.925H95.6956V345.188H133.681L127.261 348.077C127.261 345.081 126.654 342.477 125.442 340.266C124.229 338.055 122.553 336.343 120.413 335.13C118.273 333.846 115.776 333.204 112.923 333.204C110.069 333.204 107.537 333.846 105.326 335.13C103.186 336.343 101.509 338.09 100.297 340.373C99.084 342.584 98.4776 345.224 98.4776 348.291V350.859C98.4776 353.998 99.1553 356.78 100.511 359.205C101.937 361.559 103.899 363.378 106.396 364.662C108.964 365.875 111.96 366.481 115.384 366.481C118.451 366.481 121.126 366.017 123.409 365.09C125.763 364.163 127.903 362.772 129.829 360.917L138.71 370.547C136.07 373.543 132.753 375.861 128.759 377.502C124.764 379.071 120.163 379.856 114.956 379.856ZM173.256 379.856C168.334 379.856 163.59 379.285 159.025 378.144C154.531 376.931 150.964 375.433 148.325 373.65L153.889 361.666C156.528 363.307 159.631 364.662 163.198 365.732C166.836 366.731 170.402 367.23 173.898 367.23C177.75 367.23 180.46 366.766 182.03 365.839C183.67 364.912 184.491 363.628 184.491 361.987C184.491 360.632 183.849 359.633 182.565 358.991C181.352 358.278 179.711 357.743 177.643 357.386C175.574 357.029 173.291 356.673 170.795 356.316C168.369 355.959 165.908 355.496 163.412 354.925C160.915 354.283 158.632 353.356 156.564 352.143C154.495 350.93 152.819 349.29 151.535 347.221C150.322 345.152 149.716 342.477 149.716 339.196C149.716 335.558 150.75 332.348 152.819 329.566C154.959 326.784 158.026 324.608 162.021 323.039C166.015 321.398 170.795 320.578 176.359 320.578C180.282 320.578 184.277 321.006 188.343 321.862C192.409 322.718 195.797 323.966 198.508 325.607L192.944 337.484C190.162 335.843 187.344 334.738 184.491 334.167C181.709 333.525 178.998 333.204 176.359 333.204C172.649 333.204 169.939 333.703 168.227 334.702C166.515 335.701 165.659 336.985 165.659 338.554C165.659 339.981 166.265 341.051 167.478 341.764C168.762 342.477 170.438 343.048 172.507 343.476C174.575 343.904 176.822 344.296 179.248 344.653C181.744 344.938 184.241 345.402 186.738 346.044C189.234 346.686 191.481 347.613 193.479 348.826C195.547 349.967 197.224 351.572 198.508 353.641C199.792 355.638 200.434 358.278 200.434 361.559C200.434 365.126 199.364 368.3 197.224 371.082C195.084 373.793 191.981 375.933 187.915 377.502C183.92 379.071 179.034 379.856 173.256 379.856ZM234.272 379.856C227.496 379.856 222.217 378.144 218.436 374.72C214.656 371.225 212.765 366.053 212.765 359.205V308.701H229.457V358.991C229.457 361.416 230.099 363.307 231.383 364.662C232.667 365.946 234.415 366.588 236.626 366.588C239.266 366.588 241.513 365.875 243.367 364.448L247.861 376.218C246.149 377.431 244.081 378.358 241.655 379C239.301 379.571 236.84 379.856 234.272 379.856ZM203.884 335.558V322.718H243.795V335.558H203.884ZM292.541 379V367.765L291.471 365.304V345.188C291.471 341.621 290.366 338.839 288.154 336.842C286.014 334.845 282.697 333.846 278.203 333.846C275.136 333.846 272.104 334.345 269.108 335.344C266.184 336.271 263.687 337.555 261.618 339.196L255.626 327.533C258.765 325.322 262.546 323.61 266.968 322.397C271.391 321.184 275.885 320.578 280.45 320.578C289.224 320.578 296.037 322.647 300.887 326.784C305.738 330.921 308.163 337.377 308.163 346.151V379H292.541ZM274.993 379.856C270.499 379.856 266.647 379.107 263.437 377.609C260.227 376.04 257.766 373.935 256.054 371.296C254.342 368.657 253.486 365.696 253.486 362.415C253.486 358.991 254.307 355.995 255.947 353.427C257.659 350.859 260.334 348.862 263.972 347.435C267.61 345.937 272.354 345.188 278.203 345.188H293.504V354.925H280.022C276.099 354.925 273.388 355.567 271.89 356.851C270.464 358.135 269.75 359.74 269.75 361.666C269.75 363.806 270.571 365.518 272.211 366.802C273.923 368.015 276.242 368.621 279.166 368.621C281.948 368.621 284.445 367.979 286.656 366.695C288.868 365.34 290.473 363.378 291.471 360.81L294.039 368.514C292.827 372.223 290.615 375.041 287.405 376.967C284.195 378.893 280.058 379.856 274.993 379.856ZM323.27 379V299.606H339.962V379H323.27ZM362.73 400.614C359.734 400.614 356.774 400.15 353.849 399.223C350.924 398.296 348.535 397.012 346.68 395.371L352.779 383.494C354.063 384.635 355.525 385.527 357.166 386.169C358.878 386.811 360.554 387.132 362.195 387.132C364.549 387.132 366.404 386.561 367.759 385.42C369.186 384.35 370.47 382.531 371.611 379.963L374.607 372.901L375.891 371.082L396.542 321.434H412.592L386.591 382.531C384.736 387.168 382.596 390.806 380.171 393.445C377.817 396.084 375.178 397.939 372.253 399.009C369.4 400.079 366.225 400.614 362.73 400.614ZM372.574 381.247L346.894 321.434H364.121L384.023 369.584L372.574 381.247ZM414.399 379V368.942L448.425 328.71L451.314 334.274H415.148V321.434H464.796V331.492L430.77 371.724L427.774 366.16H465.759V379H414.399ZM504.294 379.856C497.731 379.856 491.953 378.572 486.96 376.004C482.038 373.436 478.221 369.941 475.511 365.518C472.8 361.024 471.445 355.924 471.445 350.217C471.445 344.439 472.764 339.339 475.404 334.916C478.114 330.422 481.788 326.927 486.425 324.43C491.061 321.862 496.304 320.578 502.154 320.578C507.789 320.578 512.854 321.791 517.348 324.216C521.913 326.57 525.515 329.994 528.155 334.488C530.794 338.911 532.114 344.225 532.114 350.431C532.114 351.073 532.078 351.822 532.007 352.678C531.935 353.463 531.864 354.212 531.793 354.925H485.034V345.188H523.019L516.599 348.077C516.599 345.081 515.992 342.477 514.78 340.266C513.567 338.055 511.891 336.343 509.751 335.13C507.611 333.846 505.114 333.204 502.261 333.204C499.407 333.204 496.875 333.846 494.664 335.13C492.524 336.343 490.847 338.09 489.635 340.373C488.422 342.584 487.816 345.224 487.816 348.291V350.859C487.816 353.998 488.493 356.78 489.849 359.205C491.275 361.559 493.237 363.378 495.734 364.662C498.302 365.875 501.298 366.481 504.722 366.481C507.789 366.481 510.464 366.017 512.747 365.09C515.101 364.163 517.241 362.772 519.167 360.917L528.048 370.547C525.408 373.543 522.091 375.861 518.097 377.502C514.102 379.071 509.501 379.856 504.294 379.856Z" fill="#003049"/>
</svg>
