<svg width="20" height="20" viewBox="0 0 20 20" fill="none" xmlns="http://www.w3.org/2000/svg">
<path d="M18.3333 9.08341V3.41675C18.3333 2.16675 17.8 1.66675 16.475 1.66675H13.1083C11.7833 1.66675 11.25 2.16675 11.25 3.41675V9.08341C11.25 10.3334 11.7833 10.8334 13.1083 10.8334H16.475C17.8 10.8334 18.3333 10.3334 18.3333 9.08341Z" stroke="#003049" stroke-width="1.5" stroke-linecap="round" stroke-linejoin="round"/>
<path d="M18.3333 16.5833V15.0833C18.3333 13.8333 17.8 13.3333 16.475 13.3333H13.1083C11.7833 13.3333 11.25 13.8333 11.25 15.0833V16.5833C11.25 17.8333 11.7833 18.3333 13.1083 18.3333H16.475C17.8 18.3333 18.3333 17.8333 18.3333 16.5833Z" stroke="#003049" stroke-width="1.5" stroke-linecap="round" stroke-linejoin="round"/>
<path d="M8.75 10.9167V16.5834C8.75 17.8334 8.21667 18.3334 6.89167 18.3334H3.525C2.2 18.3334 1.66667 17.8334 1.66667 16.5834V10.9167C1.66667 9.66675 2.2 9.16675 3.525 9.16675H6.89167C8.21667 9.16675 8.75 9.66675 8.75 10.9167Z" stroke="#003049" stroke-width="1.5" stroke-linecap="round" stroke-linejoin="round"/>
<path d="M8.75 3.41675V4.91675C8.75 6.16675 8.21667 6.66675 6.89167 6.66675H3.525C2.2 6.66675 1.66667 6.16675 1.66667 4.91675V3.41675C1.66667 2.16675 2.2 1.66675 3.525 1.66675H6.89167C8.21667 1.66675 8.75 2.16675 8.75 3.41675Z" stroke="#003049" stroke-width="1.5" stroke-linecap="round" stroke-linejoin="round"/>
</svg>
