<svg width="20" height="20" viewBox="0 0 20 20" fill="none" xmlns="http://www.w3.org/2000/svg">
<path d="M10.1333 9.05829C10.05 9.04996 9.95 9.04996 9.85834 9.05829C7.875 8.99163 6.3 7.36663 6.3 5.36663C6.3 3.32496 7.95 1.66663 10 1.66663C12.0417 1.66663 13.7 3.32496 13.7 5.36663C13.6917 7.36663 12.1167 8.99163 10.1333 9.05829Z" stroke="#003049" stroke-width="1.5" stroke-linecap="round" stroke-linejoin="round"/>
<path d="M5.96667 12.1334C3.95 13.4834 3.95 15.6834 5.96667 17.025C8.25833 18.5584 12.0167 18.5584 14.3083 17.025C16.325 15.675 16.325 13.475 14.3083 12.1334C12.025 10.6084 8.26667 10.6084 5.96667 12.1334Z" stroke="#003049" stroke-width="1.5" stroke-linecap="round" stroke-linejoin="round"/>
</svg>
