<svg width="64" height="65" viewBox="0 0 64 65" fill="none" xmlns="http://www.w3.org/2000/svg">
<rect y="0.5" width="64" height="64" rx="32" fill="#3792F9"/>
<path d="M32.1866 31.1817C32.0699 31.17 31.9299 31.17 31.8016 31.1817C29.0249 31.0884 26.8199 28.8134 26.8199 26.0134C26.8199 23.155 29.1299 20.8334 31.9999 20.8334C34.8583 20.8334 37.1799 23.155 37.1799 26.0134C37.1683 28.8134 34.9633 31.0884 32.1866 31.1817Z" stroke="white" stroke-width="2" stroke-linecap="round" stroke-linejoin="round"/>
<path d="M26.3533 35.4866C23.53 37.3766 23.53 40.4566 26.3533 42.335C29.5617 44.4816 34.8233 44.4816 38.0317 42.335C40.855 40.445 40.855 37.365 38.0317 35.4866C34.835 33.3516 29.5733 33.3516 26.3533 35.4866Z" stroke="white" stroke-width="2" stroke-linecap="round" stroke-linejoin="round"/>
</svg>
